<svg width="267" height="65" viewBox="0 0 267 65" fill="none" xmlns="http://www.w3.org/2000/svg">
<path d="M171.442 32.5306C171.699 32.5306 171.906 32.739 171.906 32.9973C171.906 33.2555 171.699 33.464 171.442 33.464C171.185 33.464 170.978 33.2555 170.978 32.9973C170.978 32.7435 171.185 32.5306 171.442 32.5306ZM171.442 33.3598C171.635 33.3598 171.784 33.2012 171.784 32.9973C171.784 32.7934 171.635 32.6348 171.442 32.6348C171.248 32.6348 171.1 32.7934 171.1 32.9973C171.1 33.2012 171.248 33.3598 171.442 33.3598ZM171.676 33.0698C171.658 33.1966 171.563 33.2646 171.455 33.2646C171.298 33.2646 171.208 33.1468 171.208 32.9973C171.208 32.8432 171.293 32.7345 171.451 32.7345C171.563 32.7345 171.658 32.7934 171.676 32.9157H171.559C171.55 32.8568 171.505 32.8387 171.46 32.8387C171.365 32.8387 171.325 32.9021 171.325 32.9927C171.325 33.0834 171.37 33.1604 171.46 33.1604C171.514 33.1604 171.554 33.1377 171.559 33.0743H171.676V33.0698Z" fill="#FF6756"/>
<g clip-path="url(#clip0_289:138)">
<path d="M247.234 18.8863C242.279 18.8863 238.007 22.043 235.935 26.6267C233.864 22.043 229.592 18.8863 224.637 18.8863C220.579 18.8863 216.97 21.0052 214.663 24.3133V18.8863H205.309V32.097C205.202 34.5618 197.599 41.5671 186.557 41.5671C186.407 41.5671 186.258 41.5671 186.108 41.5671C185.467 41.5671 185.211 40.7239 185.724 40.3563C190.209 37.1564 193.69 34.605 198.068 31.1672C199.905 29.7186 200.097 27.2105 199.264 25.6322C197.919 23.0808 195.783 20.9836 193.37 19.4052C190.166 17.3295 186.3 16.5079 182.477 16.5079C173.272 16.5079 164.366 21.5457 160.201 28.8754C159.774 29.6105 158.664 29.3294 158.664 28.4646V18.8863H149.309V46.8644H158.664V40.5942C158.664 35.8375 161.825 32.9186 165.541 30.497C166.203 30.0645 167.228 29.4808 167.976 29.1781L167.997 29.1565C168.574 28.7889 169.257 29.4375 168.915 30.0429C167.997 31.7294 167.271 34.1294 167.271 37.5888C167.271 41.0482 170.859 49.5238 184.25 49.5238C194.566 49.5238 201.55 45.113 204.219 40.9401C204.54 40.4428 205.287 40.659 205.287 41.2644V46.886H214.642V32.8753C214.642 29.6537 217.611 27.0376 221.263 27.0376C224.915 27.0376 227.884 29.6537 227.884 32.8753V46.8644H237.26V32.9618C237.26 32.9402 237.26 32.9186 237.26 32.8753C237.26 32.8537 237.26 32.8321 237.26 32.7888C237.302 29.6105 240.25 27.0376 243.88 27.0376C247.533 27.0376 250.501 29.6537 250.501 32.8753V46.8644H259.856V32.8753C259.856 25.1565 254.218 18.8863 247.234 18.8863ZM173.699 32.3348C174.831 26.9294 179.423 24.4646 181.004 24.4646C181.516 24.4646 181.901 24.897 181.709 25.3727L175.536 37.7618C175.344 38.2807 174.618 38.3455 174.34 37.8482C173.144 35.7077 173.486 33.3294 173.699 32.3348ZM178.462 40.2915C180.534 35.4915 184.57 30.6483 187.069 25.9565C187.24 25.6322 187.646 25.5241 187.966 25.697C188.885 26.2159 189.611 26.6267 190.166 27.0808C191.341 28.0754 191.341 29.7618 190.23 30.7997C186.77 33.978 181.004 39.4915 179.338 40.8104C179.017 41.0698 178.505 40.8969 178.441 40.4644C178.441 40.4212 178.441 40.3563 178.462 40.2915Z" fill="#FF6502"/>
<path d="M107 18.8864V27.1458L92.7328 27.0593C89.0807 27.0593 86.112 29.6755 86.112 32.8971C86.112 36.1187 89.0807 38.7349 92.7328 38.7349H107V46.9077H92.4125C83.5918 46.9077 76.437 40.6375 76.437 32.9187C76.437 25.1566 83.5918 18.8864 92.4125 18.8864H107Z" fill="#FF6502"/>
<path d="M143.693 18.8864V32.8755C143.693 40.6159 136.538 46.8645 127.717 46.8645C118.896 46.8645 111.742 40.5943 111.742 32.8755V18.8864H121.096V32.8755C121.096 36.097 124.065 38.7132 127.717 38.7132C131.369 38.7132 134.338 36.097 134.338 32.8755V18.8864H143.693Z" fill="#FF6502"/>
<path d="M264.149 42.4105C265.366 42.4105 266.348 43.405 266.348 44.6375C266.348 45.8699 265.366 46.8645 264.149 46.8645C262.931 46.8645 261.949 45.8699 261.949 44.6375C261.949 43.4267 262.931 42.4105 264.149 42.4105ZM264.149 46.3672C265.067 46.3672 265.772 45.6104 265.772 44.6375C265.772 43.6645 265.067 42.9078 264.149 42.9078C263.23 42.9078 262.525 43.6645 262.525 44.6375C262.525 45.6104 263.23 46.3672 264.149 46.3672ZM265.259 44.9834C265.174 45.5888 264.725 45.9131 264.213 45.9131C263.465 45.9131 263.038 45.351 263.038 44.6375C263.038 43.9023 263.444 43.3834 264.191 43.3834C264.725 43.3834 265.174 43.6645 265.259 44.2483H264.704C264.661 43.9672 264.448 43.8807 264.234 43.8807C263.785 43.8807 263.593 44.1834 263.593 44.6158C263.593 45.0483 263.807 45.4158 264.234 45.4158C264.49 45.4158 264.682 45.3077 264.704 45.005H265.259V44.9834Z" fill="#FF6502"/>
</g>
<g clip-path="url(#clip1_289:138)">
<path d="M31.5099 63.0198C48.9124 63.0198 63.0198 48.9124 63.0198 31.5099C63.0198 14.1075 48.9124 0 31.5099 0C14.1075 0 0 14.1075 0 31.5099C0 48.9124 14.1075 63.0198 31.5099 63.0198Z" fill="#FF6502"/>
<path d="M38.1652 55.6093H42.1785V48.7152H32.3838C30.556 48.6358 25.3705 43.0331 25.3705 34.8676C25.3705 34.7484 25.3705 34.649 25.3705 34.5298C25.3705 34.053 25.9864 33.8742 26.2646 34.2517C28.6487 37.5497 30.5162 40.1325 33.0791 43.351C34.152 44.702 36.0195 44.8411 37.1917 44.2252C39.0791 43.2318 40.6487 41.6623 41.801 39.8742C43.3507 37.5099 43.9467 34.649 43.9467 31.8477C43.9467 25.053 40.2116 18.4768 34.7878 15.4172C34.2315 15.0994 34.45 14.2848 35.0858 14.2848H42.1785V7.39075H21.4368V14.3047H26.0858C29.6023 14.3047 31.7679 16.6292 33.5758 19.3709C33.8937 19.8676 34.3308 20.6225 34.5692 21.1788C34.5692 21.1788 34.5692 21.1987 34.5891 21.1987C34.8672 21.6159 34.3705 22.1126 33.9335 21.8742C32.6818 21.1987 30.9136 20.6623 28.3308 20.6623C25.7679 20.6623 19.4897 23.3047 19.4897 33.1987C19.4897 40.808 22.748 45.9536 25.8672 47.9205C26.2447 48.1589 26.0659 48.7152 25.6288 48.7152H21.4566V55.6093H31.8275H38.1652ZM32.205 25.3907C36.2182 26.2252 38.046 29.6027 38.046 30.7748C38.046 31.1523 37.7282 31.4305 37.3705 31.2914L28.1917 26.7417C27.7944 26.6027 27.7546 26.0662 28.1321 25.8676C29.7215 24.9934 31.4699 25.2517 32.205 25.3907ZM26.3043 28.9272C29.8606 30.457 33.4566 33.4371 36.9335 35.2649C37.1719 35.3841 37.2513 35.6821 37.1321 35.9205C36.7546 36.596 36.4368 37.1325 36.099 37.5497C35.3639 38.4238 34.1123 38.4238 33.3374 37.5894C30.9732 35.0464 26.8805 30.7748 25.9268 29.5629C25.7282 29.3245 25.8672 28.947 26.1851 28.9073C26.2248 28.8874 26.2646 28.9073 26.3043 28.9272Z" fill="white" stroke="#FF6502" stroke-miterlimit="10"/>
</g>
<defs>
<clipPath id="clip0_289:138">
<rect width="189.912" height="33.0159" fill="white" transform="translate(76.437 16.5079)"/>
</clipPath>
<clipPath id="clip1_289:138">
<rect width="63" height="63" fill="white"/>
</clipPath>
</defs>
</svg>
